<svg width="22" height="23" viewBox="0 0 22 23" fill="none" xmlns="http://www.w3.org/2000/svg">
<mask id="mask0_113_523" style="mask-type:luminance" maskUnits="userSpaceOnUse" x="0" y="0" width="22" height="23">
<path d="M3.929 15.7903C2.119 16.3472 1 17.1164 1 17.9662C1 19.6657 5.477 21.0431 11 21.0431C16.523 21.0431 21 19.6657 21 17.9662C21 17.1164 19.8805 16.3472 18.071 15.7903" stroke="white" stroke-width="2" stroke-linecap="round" stroke-linejoin="round"/>
<path d="M11 16.9405C11 16.9405 17.5 12.5836 17.5 7.54668C17.5 3.95489 14.59 1.04309 11 1.04309C7.41 1.04309 4.5 3.95489 4.5 7.54668C4.5 12.5836 11 16.9405 11 16.9405Z" fill="white" stroke="white" stroke-width="2" stroke-linejoin="round"/>
<path d="M11 10.2738C11.663 10.2738 12.2989 10.0037 12.7678 9.52283C13.2366 9.04196 13.5 8.38978 13.5 7.70973C13.5 7.02969 13.2366 6.3775 12.7678 5.89664C12.2989 5.41578 11.663 5.14563 11 5.14563C10.337 5.14563 9.70107 5.41578 9.23223 5.89664C8.76339 6.3775 8.5 7.02969 8.5 7.70973C8.5 8.38978 8.76339 9.04196 9.23223 9.52283C9.70107 10.0037 10.337 10.2738 11 10.2738Z" fill="black" stroke="black" stroke-width="2" stroke-linejoin="round"/>
</mask>
<g mask="url(#mask0_113_523)">
<path d="M-1 -1.00818H23V23.6072H-1V-1.00818Z" fill="#BBBBBB"/>
</g>
</svg>
