<svg width="23" height="23" viewBox="0 0 23 23" fill="none" xmlns="http://www.w3.org/2000/svg">
<path fill-rule="evenodd" clip-rule="evenodd" d="M5.13786 2.8114H8.23452C9.52632 2.8114 10.5616 3.865 10.5616 5.15771V8.28094C10.5616 9.5819 9.52632 10.6263 8.23452 10.6263H5.13786C3.85522 10.6263 2.81079 9.5819 2.81079 8.28094V5.15771C2.81079 3.865 3.85522 2.8114 5.13786 2.8114ZM5.13788 13.3196H8.23453C9.52633 13.3196 10.5616 14.3649 10.5616 15.6659V18.7891C10.5616 20.0809 9.52633 21.1345 8.23453 21.1345H5.13788C3.85524 21.1345 2.8108 20.0809 2.8108 18.7891V15.6659C2.8108 14.3649 3.85524 13.3196 5.13788 13.3196ZM18.8072 2.8114H15.7106C14.4188 2.8114 13.3835 3.865 13.3835 5.15772V8.28094C13.3835 9.5819 14.4188 10.6263 15.7106 10.6263H18.8072C20.0899 10.6263 21.1343 9.5819 21.1343 8.28094V5.15772C21.1343 3.865 20.0899 2.8114 18.8072 2.8114ZM15.7106 13.3196H18.8072C20.0899 13.3196 21.1343 14.3649 21.1343 15.6659V18.7891C21.1343 20.0809 20.0899 21.1345 18.8072 21.1345H15.7106C14.4188 21.1345 13.3835 20.0809 13.3835 18.7891V15.6659C13.3835 14.3649 14.4188 13.3196 15.7106 13.3196Z" fill="#007AFF"/>
</svg>
