<svg width="19" height="20" viewBox="0 0 19 20" fill="none" xmlns="http://www.w3.org/2000/svg">
<g clip-path="url(#clip0_113_512)">
<path d="M13.175 11.4307L14.0639 10.5557C14.2028 10.419 14.4444 10.5147 14.4444 10.7116V14.6874C14.4444 15.412 13.8472 15.9999 13.1111 15.9999H3.33333C2.59722 15.9999 2 15.412 2 14.6874V5.06235C2 4.33774 2.59722 3.74985 3.33333 3.74985H10.9306C11.1278 3.74985 11.2278 3.98501 11.0889 4.12446L10.2 4.99946C10.1583 5.04048 10.1028 5.06235 10.0417 5.06235H3.33333V14.6874H13.1111V11.5838C13.1111 11.5264 13.1333 11.4717 13.175 11.4307ZM17.525 5.91274L10.2306 13.0932L7.71944 13.3667C6.99167 13.4459 6.37222 12.8417 6.45278 12.1198L6.73056 9.6479L14.025 2.46743C14.6611 1.84126 15.6889 1.84126 16.3222 2.46743L17.5222 3.64868C18.1583 4.27485 18.1583 5.28931 17.525 5.91274ZM14.7806 6.75767L13.1667 5.16899L8.00556 10.2522L7.80278 12.0377L9.61667 11.8381L14.7806 6.75767ZM16.5806 4.57837L15.3806 3.39712C15.2667 3.28501 15.0806 3.28501 14.9694 3.39712L14.1111 4.24204L15.725 5.83071L16.5833 4.98579C16.6944 4.87095 16.6944 4.69048 16.5806 4.57837Z" fill="#969696"/>
</g>
<defs>
<clipPath id="clip0_113_512">
<rect width="16" height="14" fill="white" transform="translate(2 2)"/>
</clipPath>
</defs>
</svg>
