<svg width="14" height="14" viewBox="0 0 14 14" fill="none" xmlns="http://www.w3.org/2000/svg">
<path d="M11.25 7.49271L6.12135 12.6214C5.55874 13.184 4.79567 13.5001 4.00002 13.5001C3.20436 13.5001 2.4413 13.184 1.87869 12.6214C1.31607 12.0588 1 11.2957 1 10.5C1 9.70439 1.31607 8.94133 1.87869 8.37871L9.17202 1.08538C9.3578 0.899692 9.57833 0.752412 9.82102 0.651952C10.0637 0.551491 10.3238 0.499816 10.5865 0.499878C10.8492 0.49994 11.1092 0.551737 11.3519 0.652312C11.5945 0.752887 11.815 0.900271 12.0007 1.08605C12.1864 1.27182 12.3337 1.49236 12.4341 1.73505C12.5346 1.97775 12.5862 2.23785 12.5862 2.50052C12.5861 2.76318 12.5343 3.02327 12.4338 3.26591C12.3332 3.50856 12.1858 3.72903 12 3.91471L4.70135 11.2134C4.51201 11.3949 4.25893 11.4941 3.99665 11.4908C3.73437 11.4874 3.4839 11.3812 3.29922 11.1949C3.11453 11.0087 3.01042 10.7573 3.00933 10.495C3.00823 10.2327 3.11023 9.98051 3.29335 9.79271L8.50002 4.58605M4.70735 11.2067L4.70068 11.2134" stroke="#007AFF" stroke-opacity="0.9" stroke-linecap="round" stroke-linejoin="round"/>
</svg>
