<svg width="21" height="20" viewBox="0 0 21 20" fill="none" xmlns="http://www.w3.org/2000/svg">
<path d="M9.33974 14.9775H3.31458" stroke="#969696" stroke-width="1.2993" stroke-linecap="round" stroke-linejoin="round"/>
<path fill-rule="evenodd" clip-rule="evenodd" d="M18.5021 14.9776C18.5021 16.3023 17.4282 17.3763 16.1034 17.3763C14.7786 17.3763 13.7047 16.3023 13.7047 14.9776C13.7047 13.6518 14.7786 12.5789 16.1034 12.5789C17.4282 12.5789 18.5021 13.6518 18.5021 14.9776Z" stroke="#969696" stroke-width="1.2993" stroke-linecap="round" stroke-linejoin="round"/>
<path d="M12.476 5.21246H18.5021" stroke="#969696" stroke-width="1.2993" stroke-linecap="round" stroke-linejoin="round"/>
<path fill-rule="evenodd" clip-rule="evenodd" d="M3.31421 5.21242C3.31421 6.53817 4.38814 7.61112 5.71291 7.61112C7.03768 7.61112 8.11161 6.53817 8.11161 5.21242C8.11161 3.88765 7.03768 2.81372 5.71291 2.81372C4.38814 2.81372 3.31421 3.88765 3.31421 5.21242Z" stroke="#969696" stroke-width="1.2993" stroke-linecap="round" stroke-linejoin="round"/>
</svg>
