<svg width="19" height="20" viewBox="0 0 19 20" fill="none" xmlns="http://www.w3.org/2000/svg">
<path d="M18.2192 9.81016C18.194 9.74922 17.5765 8.30781 16.1975 6.85625C14.918 5.51094 12.7196 3.90625 9.50001 3.90625C6.2804 3.90625 4.08204 5.51094 2.80251 6.85625C1.42353 8.30781 0.806029 9.74687 0.780795 9.81016C0.755421 9.87016 0.74231 9.9351 0.74231 10.0008C0.74231 10.0665 0.755421 10.1314 0.780795 10.1914C0.806029 10.2516 1.42353 11.693 2.80251 13.1445C4.08204 14.4898 6.2804 16.0938 9.50001 16.0938C12.7196 16.0938 14.918 14.4898 16.1975 13.1445C17.5765 11.693 18.194 10.2539 18.2192 10.1914C18.2446 10.1314 18.2577 10.0665 18.2577 10.0008C18.2577 9.9351 18.2446 9.87016 18.2192 9.81016ZM9.50001 15.1562C7.17103 15.1562 5.13744 14.2641 3.4549 12.5055C2.74958 11.7676 2.15273 10.9232 1.68404 10C2.15259 9.07697 2.74946 8.23277 3.4549 7.49531C5.13744 5.73594 7.17103 4.84375 9.50001 4.84375C11.829 4.84375 13.8626 5.73594 15.5451 7.49531C16.2506 8.23277 16.8474 9.07697 17.316 10C16.8432 10.9539 14.4727 15.1562 9.50001 15.1562ZM9.50001 6.40625C8.82478 6.40625 8.1647 6.61702 7.60326 7.01191C7.04182 7.40679 6.60423 7.96806 6.34583 8.62473C6.08743 9.2814 6.01982 10.004 6.15155 10.7011C6.28328 11.3982 6.60844 12.0386 7.08591 12.5412C7.56337 13.0438 8.1717 13.386 8.83396 13.5247C9.49623 13.6634 10.1827 13.5922 10.8065 13.3202C11.4304 13.0482 11.9636 12.5876 12.3387 11.9966C12.7138 11.4056 12.9141 10.7108 12.9141 10C12.9129 9.04726 12.5528 8.1339 11.9128 7.46021C11.2728 6.78651 10.4051 6.40749 9.50001 6.40625ZM9.50001 12.6562C9.00093 12.6562 8.51304 12.5005 8.09807 12.2086C7.68309 11.9167 7.35965 11.5019 7.16866 11.0165C6.97767 10.5311 6.9277 9.99705 7.02506 9.48179C7.12243 8.96653 7.36276 8.49323 7.71567 8.12175C8.06858 7.75026 8.51822 7.49728 9.00772 7.39479C9.49721 7.2923 10.0046 7.3449 10.4657 7.54595C10.9268 7.74699 11.3209 8.08745 11.5982 8.52427C11.8755 8.96108 12.0235 9.47464 12.0235 10C12.0235 10.7045 11.7576 11.3801 11.2844 11.8783C10.8111 12.3764 10.1693 12.6562 9.50001 12.6562Z" fill="#969696"/>
</svg>
