<svg width="19" height="20" viewBox="0 0 19 20" fill="none" xmlns="http://www.w3.org/2000/svg">
<path fill-rule="evenodd" clip-rule="evenodd" d="M5.77935 0.777832H14.1504C17.2358 0.777832 18.9538 2.40861 18.9538 5.20293V14.667C18.9538 17.5071 17.2358 19.1012 14.1504 19.1012H5.77935C2.74294 19.1012 0.975037 17.5071 0.975037 14.667V5.20293C0.975037 2.40861 2.74294 0.777832 5.77935 0.777832ZM6.04905 5.0473V5.03814H9.03452C9.46501 5.03814 9.8146 5.3588 9.8146 5.75183C9.8146 6.15586 9.46501 6.47652 9.03452 6.47652H6.04905C5.61856 6.47652 5.26997 6.15586 5.26997 5.76191C5.26997 5.36796 5.61856 5.0473 6.04905 5.0473ZM6.04905 10.6176H13.8798C14.3093 10.6176 14.6589 10.297 14.6589 9.90303C14.6589 9.50907 14.3093 9.1875 13.8798 9.1875H6.04905C5.61856 9.1875 5.26997 9.50907 5.26997 9.90303C5.26997 10.297 5.61856 10.6176 6.04905 10.6176ZM6.04903 14.8045H13.8798C14.2783 14.7679 14.5789 14.4555 14.5789 14.0899C14.5789 13.7143 14.2783 13.4028 13.8798 13.3661H6.04903C5.74938 13.3387 5.45972 13.4669 5.29991 13.7051C5.1401 13.9342 5.1401 14.2365 5.29991 14.4747C5.45972 14.7038 5.74938 14.8412 6.04903 14.8045Z" fill="#BBBBBB"/>
</svg>
