<svg width="402" height="272" viewBox="0 0 402 272" fill="none" xmlns="http://www.w3.org/2000/svg">
<path d="M45.7198 203.159V214.057H22.9698V225.83H39.9925V236.409H22.9698V259H9.36753V203.159H45.7198ZM61.6985 210C59.3121 210 57.35 209.311 55.8121 207.932C54.3273 206.5 53.5849 204.75 53.5849 202.682C53.5849 200.561 54.3273 198.811 55.8121 197.432C57.35 196 59.3121 195.284 61.6985 195.284C64.0318 195.284 65.9409 196 67.4258 197.432C68.9637 198.811 69.7326 200.561 69.7326 202.682C69.7326 204.75 68.9637 206.5 67.4258 207.932C65.9409 209.311 64.0318 210 61.6985 210ZM68.4599 214.614V259H54.8576V214.614H68.4599ZM107.351 214.136C112.548 214.136 116.685 215.833 119.76 219.227C122.889 222.568 124.454 227.182 124.454 233.068V259H110.931V234.898C110.931 231.928 110.162 229.621 108.624 227.977C107.086 226.333 105.018 225.511 102.42 225.511C99.8211 225.511 97.7529 226.333 96.215 227.977C94.6771 229.621 93.9082 231.928 93.9082 234.898V259H80.3059V214.614H93.9082V220.5C95.287 218.538 97.143 217 99.4764 215.886C101.81 214.72 104.435 214.136 107.351 214.136ZM133.19 236.727C133.19 232.167 134.038 228.163 135.735 224.716C137.485 221.269 139.845 218.617 142.815 216.761C145.785 214.905 149.099 213.977 152.758 213.977C155.887 213.977 158.618 214.614 160.951 215.886C163.338 217.159 165.167 218.83 166.44 220.898V214.614H180.042V259H166.44V252.716C165.114 254.784 163.258 256.455 160.872 257.727C158.538 259 155.807 259.636 152.679 259.636C149.073 259.636 145.785 258.708 142.815 256.852C139.845 254.943 137.485 252.265 135.735 248.818C134.038 245.318 133.19 241.288 133.19 236.727ZM166.44 236.807C166.44 233.413 165.485 230.735 163.576 228.773C161.72 226.811 159.44 225.83 156.735 225.83C154.031 225.83 151.724 226.811 149.815 228.773C147.959 230.682 147.031 233.333 147.031 236.727C147.031 240.121 147.959 242.826 149.815 244.841C151.724 246.803 154.031 247.784 156.735 247.784C159.44 247.784 161.72 246.803 163.576 244.841C165.485 242.879 166.44 240.201 166.44 236.807ZM218.917 214.136C224.114 214.136 228.25 215.833 231.326 219.227C234.455 222.568 236.019 227.182 236.019 233.068V259H222.497V234.898C222.497 231.928 221.728 229.621 220.19 227.977C218.652 226.333 216.584 225.511 213.985 225.511C211.387 225.511 209.319 226.333 207.781 227.977C206.243 229.621 205.474 231.928 205.474 234.898V259H191.872V214.614H205.474V220.5C206.853 218.538 208.709 217 211.042 215.886C213.375 214.72 216 214.136 218.917 214.136ZM244.756 236.807C244.756 232.193 245.684 228.163 247.54 224.716C249.449 221.269 252.074 218.617 255.415 216.761C258.809 214.905 262.68 213.977 267.028 213.977C272.597 213.977 277.237 215.436 280.949 218.352C284.714 221.269 287.18 225.379 288.347 230.682H273.869C272.65 227.288 270.29 225.591 266.79 225.591C264.297 225.591 262.309 226.572 260.824 228.534C259.339 230.443 258.597 233.201 258.597 236.807C258.597 240.413 259.339 243.197 260.824 245.159C262.309 247.068 264.297 248.023 266.79 248.023C270.29 248.023 272.65 246.326 273.869 242.932H288.347C287.18 248.129 284.714 252.212 280.949 255.182C277.184 258.152 272.543 259.636 267.028 259.636C262.68 259.636 258.809 258.708 255.415 256.852C252.074 254.996 249.449 252.345 247.54 248.898C245.684 245.451 244.756 241.42 244.756 236.807ZM304.452 210C302.066 210 300.104 209.311 298.566 207.932C297.081 206.5 296.338 204.75 296.338 202.682C296.338 200.561 297.081 198.811 298.566 197.432C300.104 196 302.066 195.284 304.452 195.284C306.785 195.284 308.694 196 310.179 197.432C311.717 198.811 312.486 200.561 312.486 202.682C312.486 204.75 311.717 206.5 310.179 207.932C308.694 209.311 306.785 210 304.452 210ZM311.213 214.614V259H297.611V214.614H311.213ZM320.355 236.727C320.355 232.167 321.203 228.163 322.9 224.716C324.65 221.269 327.01 218.617 329.98 216.761C332.95 214.905 336.264 213.977 339.923 213.977C343.052 213.977 345.783 214.614 348.116 215.886C350.503 217.159 352.332 218.83 353.605 220.898V214.614H367.207V259H353.605V252.716C352.279 254.784 350.423 256.455 348.037 257.727C345.703 259 342.972 259.636 339.843 259.636C336.237 259.636 332.95 258.708 329.98 256.852C327.01 254.943 324.65 252.265 322.9 248.818C321.203 245.318 320.355 241.288 320.355 236.727ZM353.605 236.807C353.605 233.413 352.65 230.735 350.741 228.773C348.885 226.811 346.605 225.83 343.9 225.83C341.196 225.83 338.889 226.811 336.98 228.773C335.124 230.682 334.196 233.333 334.196 236.727C334.196 240.121 335.124 242.826 336.98 244.841C338.889 246.803 341.196 247.784 343.9 247.784C346.605 247.784 348.885 246.803 350.741 244.841C352.65 242.879 353.605 240.201 353.605 236.807ZM392.639 200.136V259H379.036V200.136H392.639Z" fill="#323232"/>
<path d="M174.333 8.77757V150.953C182.342 155.57 191.423 158 200.667 158C209.911 158 218.992 155.57 227 150.953V8.77757C227 6.44962 226.076 4.21701 224.43 2.57089C222.783 0.924774 220.551 0 218.223 0H183.111C180.783 0 178.551 0.924774 176.904 2.57089C175.258 4.21701 174.333 6.44962 174.333 8.77757Z" fill="url(#paint0_linear_135_134)"/>
<path d="M148 26.3329V105.333C148 124.827 158.593 141.845 174.333 150.953V17.5553H156.778C154.45 17.5553 152.218 18.4801 150.571 20.1262C148.925 21.7722 148 24.0049 148 26.3329Z" fill="url(#paint1_linear_135_134)"/>
<path d="M227 59.7135V150.953C242.74 141.845 253.334 124.827 253.334 105.333V43.8888C253.334 41.5607 252.409 39.3281 250.762 37.682C249.116 36.0359 246.883 35.1112 244.555 35.1112H227V59.7135Z" fill="url(#paint2_linear_135_134)"/>
<defs>
<linearGradient id="paint0_linear_135_134" x1="200.667" y1="158" x2="200.667" y2="2.90014e-06" gradientUnits="userSpaceOnUse">
<stop stop-color="#00B242"/>
<stop offset="1" stop-color="#5CC163"/>
</linearGradient>
<linearGradient id="paint1_linear_135_134" x1="161.167" y1="17.5553" x2="161.167" y2="150.953" gradientUnits="userSpaceOnUse">
<stop stop-color="#7ECF92"/>
<stop offset="1" stop-color="#52D071"/>
</linearGradient>
<linearGradient id="paint2_linear_135_134" x1="240.167" y1="150.953" x2="240.167" y2="35.1112" gradientUnits="userSpaceOnUse">
<stop stop-color="#36C95B"/>
<stop offset="1" stop-color="#7ECF92"/>
</linearGradient>
</defs>
</svg>
