<svg width="23" height="23" viewBox="0 0 23 23" fill="none" xmlns="http://www.w3.org/2000/svg">
<path fill-rule="evenodd" clip-rule="evenodd" d="M19.6704 13.0638C19.9981 13.2379 20.2509 13.5128 20.4288 13.7876C20.7752 14.3556 20.7471 15.0519 20.4101 15.6658L19.7547 16.7652C19.4082 17.3515 18.7622 17.718 18.0974 17.718C17.7697 17.718 17.4046 17.6264 17.105 17.4431C16.8615 17.2874 16.5806 17.2324 16.281 17.2324C15.3541 17.2324 14.577 17.9928 14.5489 18.8998C14.5489 19.9534 13.6875 20.778 12.6108 20.778H11.3374C10.2513 20.778 9.38996 19.9534 9.38996 18.8998C9.37124 17.9928 8.59412 17.2324 7.66719 17.2324C7.35822 17.2324 7.07733 17.2874 6.84326 17.4431C6.54365 17.6264 6.16914 17.718 5.8508 17.718C5.17667 17.718 4.53063 17.3515 4.18421 16.7652L3.53817 15.6658C3.19174 15.0702 3.17302 14.3556 3.51945 13.7876C3.66925 13.5128 3.95014 13.2379 4.26847 13.0638C4.53063 12.9356 4.69917 12.7249 4.85833 12.4775C5.32648 11.6896 5.04559 10.6543 4.24975 10.1871C3.32283 9.66485 3.02321 8.50131 3.5569 7.5943L4.18421 6.51322C4.72725 5.60621 5.88825 5.28555 6.82454 5.81693C7.63911 6.25669 8.69711 5.96352 9.17462 5.18478C9.32442 4.92825 9.40869 4.6534 9.38996 4.37855C9.37124 4.02124 9.47423 3.68226 9.65212 3.40741C9.99855 2.83938 10.6259 2.47291 11.3093 2.45459H12.6295C13.3224 2.45459 13.9497 2.83938 14.2961 3.40741C14.4646 3.68226 14.577 4.02124 14.5489 4.37855C14.5302 4.6534 14.6144 4.92825 14.7642 5.18478C15.2418 5.96352 16.2998 6.25669 17.1237 5.81693C18.0506 5.28555 19.221 5.60621 19.7547 6.51322L20.382 7.5943C20.925 8.50131 20.6254 9.66485 19.6891 10.1871C18.8933 10.6543 18.6124 11.6896 19.0899 12.4775C19.2397 12.7249 19.4082 12.9356 19.6704 13.0638ZM9.32451 11.6256C9.32451 13.0639 10.5136 14.2092 11.9836 14.2092C13.4535 14.2092 14.6145 13.0639 14.6145 11.6256C14.6145 10.1872 13.4535 9.03279 11.9836 9.03279C10.5136 9.03279 9.32451 10.1872 9.32451 11.6256Z" fill="#BBBBBB"/>
</svg>
